Black Display Wide — SC.ufo
<glyph name="a.sc" format="1">
  <advance width="1218"/>
  <outline>
    <contour>
      <point x="732" y="1383" type="move" name="top"/>
    </contour>
    <contour>
      <point x="1075" y="0" type="move" name="ogonek"/>
    </contour>
    <contour>
      <point x="513" y="-128" type="move" name="bottom"/>
    </contour>
    <contour>
      <point x="255" y="35" type="line"/>
      <point x="77" y="75" type="line"/>
      <point x="461" y="1029" type="line"/>
      <point x="549" y="1291" type="line"/>
      <point x="495" y="1256" type="line"/>
      <point x="558" y="961" type="line"/>
      <point x="703" y="-10" type="line"/>
      <point x="561" y="-38" type="line"/>
      <point x="559" y="-65" type="line"/>
      <point x="1218" y="-4" type="line"/>
      <point x="1212" y="35" type="line"/>
      <point x="1104" y="66" type="line"/>
      <point x="918" y="1371" type="line"/>
      <point x="583" y="1367" type="line"/>
      <point x="37" y="70" type="line"/>
      <point x="-105" y="-42" type="line"/>
      <point x="-118" y="-79" type="line"/>
      <point x="259" y="-4" type="line"/>
    </contour>
    <contour>
      <point x="188" y="445" type="line"/>
      <point x="168" y="381" type="line"/>
      <point x="776" y="381" type="line"/>
      <point x="774" y="445" type="line"/>
    </contour>
  </outline>
</glyph>
<glyph name="ae.sc" format="1">
  <advance width="1902"/>
  <outline>
    <contour>
      <point x="1250" y="1383" type="move" name="top"/>
    </contour>
    <contour>
      <point x="674" y="35" type="line"/>
      <point x="670" y="0" type="line"/>
      <point x="1783" y="0" type="line"/>
      <point x="1863" y="374" type="line"/>
      <point x="1693" y="390" type="line"/>
      <point x="1547" y="80" type="line"/>
      <point x="1172" y="49" type="line"/>
      <point x="1250" y="625" type="line"/>
      <point x="1675" y="610" type="line"/>
      <point x="1701" y="712" type="line"/>
      <point x="1259" y="683" type="line"/>
      <point x="1335" y="1242" type="line"/>
      <point x="1658" y="1215" type="line"/>
      <point x="1728" y="978" type="line"/>
      <point x="1873" y="978" type="line"/>
      <point x="1897" y="1292" type="line"/>
      <point x="621" y="1292" type="line"/>
      <point x="614" y="1257" type="line"/>
      <point x="816" y="1227" type="line"/>
      <point x="48" y="62" type="line"/>
      <point x="-94" y="39" type="line"/>
      <point x="-101" y="0" type="line"/>
      <point x="360" y="0" type="line"/>
      <point x="366" y="39" type="line"/>
      <point x="202" y="62" type="line"/>
      <point x="403" y="375" type="line"/>
      <point x="847" y="375" type="line"/>
      <point x="803" y="67" type="line"/>
    </contour>
    <contour>
      <point x="444" y="440" type="line"/>
      <point x="907" y="1227" type="line"/>
      <point x="961" y="1227" type="line"/>
      <point x="856" y="440" type="line"/>
    </contour>
  </outline>
</glyph>
<glyph name="b.sc" format="1">
  <advance width="1309"/>
  <outline>
    <contour>
      <point x="752" y="1383" type="move" name="top"/>
    </contour>
    <contour>
      <point x="613" y="0" type="move" name="bottom"/>
    </contour>
    <contour>
      <point x="625" y="-16" type="curve"/>
      <point x="1010" y="-16"/>
      <point x="1269" y="82"/>
      <point x="1265" y="384" type="curve"/>
      <point x="1263" y="561"/>
      <point x="1116" y="650"/>
      <point x="898" y="649" type="curve"/>
      <point x="1126" y="678"/>
      <point x="1263" y="833"/>
      <point x="1260" y="1007" type="curve"/>
      <point x="1258" y="1196"/>
      <point x="1125" y="1305"/>
      <point x="770" y="1305" type="curve"/>
      <point x="621" y="1305"/>
      <point x="551" y="1292"/>
      <point x="439" y="1292" type="curve"/>
      <point x="135" y="1292" type="line"/>
      <point x="130" y="1257" type="line"/>
      <point x="246" y="1225" type="line"/>
      <point x="91" y="67" type="line"/>
      <point x="-37" y="35" type="line"/>
      <point x="-41" y="0" type="line"/>
      <point x="262" y="0" type="line" smooth="yes"/>
      <point x="388" y="0"/>
      <point x="428" y="-16"/>
    </contour>
    <contour>
      <point x="592" y="38" type="curve"/>
      <point x="510" y="38"/>
      <point x="414" y="53"/>
      <point x="355" y="95" type="curve"/>
      <point x="454" y="6" type="line"/>
      <point x="629" y="1280" type="line"/>
      <point x="496" y="1165" type="line"/>
      <point x="560" y="1224"/>
      <point x="645" y="1251"/>
      <point x="700" y="1251" type="curve"/>
      <point x="819" y="1251"/>
      <point x="908" y="1186"/>
      <point x="910" y="1024" type="curve"/>
      <point x="913" y="791"/>
      <point x="781" y="668"/>
      <point x="626" y="668" type="curve"/>
      <point x="564" y="668"/>
      <point x="511" y="667"/>
      <point x="505" y="668" type="curve"/>
      <point x="497" y="608" type="line"/>
      <point x="520" y="610"/>
      <point x="578" y="612"/>
      <point x="611" y="612" type="curve"/>
      <point x="752" y="612"/>
      <point x="868" y="584"/>
      <point x="870" y="401" type="curve"/>
      <point x="873" y="173"/>
      <point x="759" y="38"/>
    </contour>
  </outline>
</glyph>
<glyph name="c.sc" format="1">
  <advance width="1227"/>
  <outline>
    <contour>
      <point x="809" y="1383" type="move" name="top"/>
    </contour>
    <contour>
      <point x="709" y="0" type="move" name="bottom"/>
    </contour>
    <contour>
      <point x="619" y="-20" type="curve"/>
      <point x="867" y="-20"/>
      <point x="985" y="53"/>
      <point x="1075" y="50" type="curve"/>
      <point x="1146" y="412" type="line"/>
      <point x="961" y="412" type="line"/>
      <point x="943" y="347"/>
      <point x="874" y="150"/>
      <point x="850" y="119" type="curve"/>
      <point x="820" y="71"/>
      <point x="736" y="40"/>
      <point x="657" y="40" type="curve"/>
      <point x="488" y="40"/>
      <point x="431" y="243"/>
      <point x="428" y="478" type="curve"/>
      <point x="423" y="893"/>
      <point x="530" y="1251"/>
      <point x="785" y="1251" type="curve"/>
      <point x="834" y="1251"/>
      <point x="890" y="1243"/>
      <point x="923" y="1228" type="curve"/>
      <point x="956" y="861" type="line"/>
      <point x="1164" y="861" type="line"/>
      <point x="1222" y="1261" type="line"/>
      <point x="1092" y="1261"/>
      <point x="1043" y="1310"/>
      <point x="800" y="1310" type="curve"/>
      <point x="289" y="1310"/>
      <point x="39" y="920"/>
      <point x="43" y="559" type="curve"/>
      <point x="47" y="292"/>
      <point x="167" y="-20"/>
    </contour>
  </outline>
</glyph>
<glyph name="d.sc" format="1">
  <advance width="1413"/>
  <outline>
    <contour>
      <point x="800" y="1383" type="move" name="top"/>
    </contour>
    <contour>
      <point x="595" y="0" type="move" name="bottom"/>
    </contour>
    <contour>
      <point x="620" y="-19" type="curve"/>
      <point x="1172" y="-19"/>
      <point x="1419" y="329"/>
      <point x="1406" y="804" type="curve"/>
      <point x="1398" y="1054"/>
      <point x="1266" y="1306"/>
      <point x="835" y="1306" type="curve"/>
      <point x="719" y="1306"/>
      <point x="588" y="1292"/>
      <point x="443" y="1292" type="curve"/>
      <point x="134" y="1292" type="line"/>
      <point x="129" y="1257" type="line"/>
      <point x="248" y="1226" type="line"/>
      <point x="91" y="67" type="line"/>
      <point x="-36" y="36" type="line"/>
      <point x="-41" y="0" type="line"/>
      <point x="273" y="0" type="line" smooth="yes"/>
      <point x="390" y="0"/>
      <point x="512" y="-19"/>
    </contour>
    <contour>
      <point x="606" y="40" type="curve"/>
      <point x="471" y="40"/>
      <point x="455" y="60"/>
      <point x="363" y="66" type="curve"/>
      <point x="460" y="43" type="line"/>
      <point x="626" y="1269" type="line"/>
      <point x="596" y="1208" type="line"/>
      <point x="625" y="1227"/>
      <point x="661" y="1248"/>
      <point x="747" y="1248" type="curve"/>
      <point x="956" y="1248"/>
      <point x="1015" y="1089"/>
      <point x="1023" y="825" type="curve"/>
      <point x="1032" y="513"/>
      <point x="966" y="40"/>
    </contour>
  </outline>
</glyph>
<glyph name="e.sc" format="1">
  <advance width="1216"/>
  <outline>
    <contour>
      <point x="777" y="1383" type="move" name="top"/>
    </contour>
    <contour>
      <point x="987" y="0" type="move" name="ogonek"/>
    </contour>
    <contour>
      <point x="597" y="0" type="move" name="bottom"/>
    </contour>
    <contour>
      <point x="1187" y="1292" type="line"/>
      <point x="134" y="1292" type="line"/>
      <point x="129" y="1257" type="line"/>
      <point x="259" y="1225" type="line"/>
      <point x="101" y="67" type="line"/>
      <point x="-28" y="35" type="line"/>
      <point x="-32" y="0" type="line"/>
      <point x="1094" y="0" type="line"/>
      <point x="1177" y="374" type="line"/>
      <point x="1007" y="390" type="line"/>
      <point x="856" y="78" type="line"/>
      <point x="474" y="50" type="line"/>
      <point x="553" y="625" type="line"/>
      <point x="947" y="610" type="line"/>
      <point x="969" y="715" type="line"/>
      <point x="562" y="686" type="line"/>
      <point x="637" y="1242" type="line"/>
      <point x="950" y="1214" type="line"/>
      <point x="1020" y="978" type="line"/>
      <point x="1164" y="978" type="line"/>
    </contour>
  </outline>
</glyph>
<glyph name="ezh.sc" format="1">
  <advance width="1230"/>
  <outline>
    <contour>
      <point x="453" y="-16" type="curve"/>
      <point x="857" y="-16"/>
      <point x="1124" y="149"/>
      <point x="1121" y="406" type="curve"/>
      <point x="1119" y="605"/>
      <point x="921" y="724"/>
      <point x="634" y="713" type="curve"/>
      <point x="720" y="696" type="line"/>
      <point x="1213" y="1251" type="line"/>
      <point x="1203" y="1292" type="line"/>
      <point x="176" y="1292" type="line"/>
      <point x="129" y="939" type="line"/>
      <point x="297" y="940" type="line"/>
      <point x="428" y="1223" type="line"/>
      <point x="871" y="1244" type="line"/>
      <point x="744" y="1114" type="line"/>
      <point x="397" y="688" type="line"/>
      <point x="430" y="652" type="line"/>
      <point x="466" y="659"/>
      <point x="479" y="659"/>
      <point x="503" y="659" type="curve"/>
      <point x="640" y="660"/>
      <point x="749" y="574"/>
      <point x="751" y="375" type="curve"/>
      <point x="754" y="182"/>
      <point x="652" y="34"/>
      <point x="461" y="34" type="curve"/>
      <point x="387" y="34"/>
      <point x="348" y="51"/>
      <point x="297" y="91" type="curve"/>
      <point x="257" y="388" type="line"/>
      <point x="71" y="389" type="line"/>
      <point x="28" y="78" type="line"/>
      <point x="102" y="62"/>
      <point x="221" y="-16"/>
    </contour>
  </outline>
</glyph>
<glyph name="f.sc" format="1">
  <advance width="1152"/>
  <outline>
    <contour>
      <point x="716" y="1383" type="move" name="top"/>
    </contour>
    <contour>
      <point x="-37" y="35" type="line"/>
      <point x="-41" y="0" type="line"/>
      <point x="768" y="0" type="line"/>
      <point x="773" y="39" type="line"/>
      <point x="477" y="86" type="line"/>
      <point x="549" y="626" type="line"/>
      <point x="974" y="616" type="line"/>
      <point x="991" y="712" type="line"/>
      <point x="558" y="687" type="line"/>
      <point x="635" y="1242" type="line"/>
      <point x="957" y="1213" type="line"/>
      <point x="1037" y="976" type="line"/>
      <point x="1181" y="976" type="line"/>
      <point x="1194" y="1292" type="line"/>
      <point x="135" y="1292" type="line"/>
      <point x="130" y="1257" type="line"/>
      <point x="249" y="1225" type="line"/>
      <point x="91" y="67" type="line"/>
    </contour>
  </outline>
</glyph>
<glyph name="g.sc" format="1">
  <advance width="1347"/>
  <outline>
    <contour>
      <point x="841" y="1383" type="move" name="top"/>
    </contour>
    <contour>
      <point x="649" y="0" type="move" name="bottom"/>
    </contour>
    <contour>
      <point x="665" y="-19" type="curve"/>
      <point x="830" y="-19"/>
      <point x="943" y="15"/>
      <point x="1052" y="38" type="curve"/>
      <point x="1103" y="47"/>
      <point x="1161" y="62"/>
      <point x="1210" y="62" type="curve"/>
      <point x="1281" y="632" type="line"/>
      <point x="762" y="632" type="line"/>
      <point x="758" y="594" type="line"/>
      <point x="916" y="554" type="line"/>
      <point x="857" y="67" type="line"/>
      <point x="809" y="47"/>
      <point x="750" y="36"/>
      <point x="681" y="36" type="curve"/>
      <point x="481" y="36"/>
      <point x="437" y="198"/>
      <point x="433" y="505" type="curve"/>
      <point x="428" y="932"/>
      <point x="538" y="1255"/>
      <point x="815" y="1255" type="curve"/>
      <point x="904" y="1255"/>
      <point x="975" y="1227"/>
      <point x="991" y="1208" type="curve"/>
      <point x="1033" y="937" type="line"/>
      <point x="1261" y="937" type="line"/>
      <point x="1308" y="1257" type="line"/>
      <point x="1188" y="1257"/>
      <point x="1109" y="1306"/>
      <point x="822" y="1306" type="curve"/>
      <point x="252" y="1306"/>
      <point x="38" y="932"/>
      <point x="43" y="532" type="curve"/>
      <point x="46" y="263"/>
      <point x="164" y="-19"/>
    </contour>
  </outline>
</glyph>
<glyph name="germandbls.sc" format="1">
  <advance width="1507"/>
  <outline>
    <contour>
      <point x="902" y="-16" type="curve"/>
      <point x="1238" y="-16"/>
      <point x="1463" y="146"/>
      <point x="1457" y="406" type="curve"/>
      <point x="1453" y="566"/>
      <point x="1291" y="713"/>
      <point x="1020" y="738" type="curve"/>
      <point x="1387" y="1118" type="line"/>
      <point x="1406" y="1232" type="line"/>
      <point x="1339" y="1258"/>
      <point x="1203" y="1307"/>
      <point x="967" y="1307" type="curve"/>
      <point x="445" y="1307"/>
      <point x="212" y="1061"/>
      <point x="169" y="739" type="curve"/>
      <point x="78" y="67" type="line"/>
      <point x="-50" y="35" type="line"/>
      <point x="-54" y="0" type="line"/>
      <point x="432" y="0" type="line"/>
      <point x="538" y="775" type="line" smooth="yes"/>
      <point x="568" y="998"/>
      <point x="652" y="1252"/>
      <point x="934" y="1252" type="curve"/>
      <point x="1049" y="1252"/>
      <point x="1131" y="1218"/>
      <point x="1167" y="1178" type="curve"/>
      <point x="758" y="719" type="line"/>
      <point x="748" y="685" type="line"/>
      <point x="965" y="652"/>
      <point x="1086" y="571"/>
      <point x="1088" y="391" type="curve"/>
      <point x="1091" y="217"/>
      <point x="1043" y="36"/>
      <point x="905" y="36" type="curve"/>
      <point x="840" y="36"/>
      <point x="793" y="54"/>
      <point x="785" y="155" type="curve"/>
      <point x="774" y="292" type="line"/>
      <point x="640" y="292" type="line"/>
      <point x="591" y="39" type="line"/>
      <point x="665" y="34"/>
      <point x="771" y="-16"/>
    </contour>
  </outline>
</glyph>
<glyph name="h.sc" format="1">
  <advance width="1515"/>
  <outline>
    <contour>
      <point x="885" y="1383" type="move" name="top"/>
    </contour>
    <contour>
      <point x="723" y="0" type="move" name="bottom"/>
    </contour>
    <contour>
      <point x="-37" y="35" type="line"/>
      <point x="-41" y="0" type="line"/>
      <point x="589" y="0" type="line"/>
      <point x="594" y="35" type="line"/>
      <point x="463" y="67" type="line"/>
      <point x="622" y="1225" type="line"/>
      <point x="771" y="1257" type="line"/>
      <point x="775" y="1292" type="line"/>
      <point x="135" y="1292" type="line"/>
      <point x="130" y="1257" type="line"/>
      <point x="250" y="1225" type="line"/>
      <point x="91" y="67" type="line"/>
    </contour>
    <contour>
      <point x="447" y="686" type="line"/>
      <point x="449" y="621" type="line"/>
      <point x="1105" y="621" type="line"/>
      <point x="1103" y="686" type="line"/>
    </contour>
    <contour>
      <point x="779" y="35" type="line"/>
      <point x="776" y="0" type="line"/>
      <point x="1406" y="0" type="line"/>
      <point x="1411" y="35" type="line"/>
      <point x="1292" y="67" type="line"/>
      <point x="1451" y="1225" type="line"/>
      <point x="1578" y="1257" type="line"/>
      <point x="1582" y="1292" type="line"/>
      <point x="952" y="1292" type="line"/>
      <point x="947" y="1257" type="line"/>
      <point x="1079" y="1225" type="line"/>
      <point x="920" y="67" type="line"/>
    </contour>
  </outline>
</glyph>
<glyph name="i.sc" format="1">
  <advance width="741"/>
  <outline>
    <contour>
      <point x="489" y="1372" type="move" name="top"/>
    </contour>
    <contour>
      <point x="512" y="0" type="move" name="ogonek"/>
    </contour>
    <contour>
      <point x="335" y="0" type="move" name="bottom"/>
    </contour>
    <contour>
      <point x="-26" y="35" type="line"/>
      <point x="-30" y="0" type="line"/>
      <point x="611" y="0" type="line"/>
      <point x="617" y="35" type="line"/>
      <point x="484" y="67" type="line"/>
      <point x="644" y="1225" type="line"/>
      <point x="794" y="1257" type="line"/>
      <point x="798" y="1292" type="line"/>
      <point x="148" y="1292" type="line"/>
      <point x="143" y="1257" type="line"/>
      <point x="261" y="1225" type="line"/>
      <point x="102" y="67" type="line"/>
    </contour>
  </outline>
</glyph>
<glyph name="j.sc" format="1">
  <advance width="693"/>
  <outline>
    <contour>
      <point x="290" y="-129" type="move" name="btm"/>
    </contour>
    <contour>
      <point x="473" y="1383" type="move" name="top"/>
    </contour>
    <contour>
      <point x="632" y="1229" type="curve"/>
      <point x="772" y="1257" type="line"/>
      <point x="776" y="1292" type="line"/>
      <point x="129" y="1292" type="line"/>
      <point x="124" y="1257" type="line"/>
      <point x="268" y="1218" type="line"/>
      <point x="224" y="886"/>
      <point x="177" y="514"/>
      <point x="130" y="216" type="curve"/>
      <point x="105" y="66"/>
      <point x="11" y="-153"/>
      <point x="-172" y="-222" type="curve"/>
      <point x="-140" y="-270" type="line"/>
      <point x="208" y="-230"/>
      <point x="380" y="-71"/>
      <point x="463" y="154" type="curve"/>
      <point x="511" y="280"/>
      <point x="574" y="750"/>
    </contour>
  </outline>
</glyph>
<glyph name="k.sc" format="1">
  <advance width="1396"/>
  <outline>
    <contour>
      <point x="912" y="1383" type="move" name="top"/>
    </contour>
    <contour>
      <point x="721" y="0" type="move" name="bottom"/>
    </contour>
    <contour>
      <point x="-36" y="39" type="line"/>
      <point x="-40" y="0" type="line"/>
      <point x="601" y="0" type="line"/>
      <point x="606" y="39" type="line"/>
      <point x="474" y="74" type="line"/>
      <point x="638" y="1218" type="line"/>
      <point x="788" y="1254" type="line"/>
      <point x="792" y="1292" type="line"/>
      <point x="142" y="1292" type="line"/>
      <point x="137" y="1254" type="line"/>
      <point x="256" y="1218" type="line"/>
      <point x="92" y="74" type="line"/>
    </contour>
    <contour>
      <point x="453" y="543" type="line"/>
      <point x="496" y="485" type="line"/>
      <point x="707" y="663" type="line"/>
      <point x="830" y="778" type="line"/>
      <point x="1336" y="1213" type="line"/>
      <point x="1477" y="1254" type="line"/>
      <point x="1481" y="1292" type="line"/>
      <point x="1055" y="1292" type="line"/>
      <point x="1051" y="1254" type="line"/>
      <point x="1200" y="1214" type="line"/>
    </contour>
    <contour>
      <point x="983" y="0" type="curve"/>
      <point x="1434" y="0" type="line"/>
      <point x="1439" y="35" type="line"/>
      <point x="1358" y="56" type="line"/>
      <point x="1277" y="96"/>
      <point x="1178" y="271"/>
      <point x="1084" y="454" type="curve"/>
      <point x="990" y="646"/>
      <point x="932" y="767"/>
      <point x="866" y="865" type="curve"/>
      <point x="620" y="645" type="line"/>
      <point x="663" y="569"/>
      <point x="773" y="287"/>
      <point x="846" y="154" type="curve"/>
      <point x="909" y="50"/>
      <point x="917" y="0"/>
    </contour>
  </outline>
</glyph>
<glyph name="l.sc" format="1">
  <advance width="1197"/>
  <outline>
    <contour>
      <point x="825" y="870" type="move" name="car"/>
    </contour>
    <contour>
      <point x="516" y="1383" type="move" name="top"/>
    </contour>
    <contour>
      <point x="597" y="0" type="move" name="bottom"/>
    </contour>
    <contour>
      <point x="-37" y="35" type="line"/>
      <point x="-41" y="0" type="line"/>
      <point x="1052" y="0" type="line"/>
      <point x="1150" y="414" type="line"/>
      <point x="980" y="430" type="line"/>
      <point x="809" y="73" type="line"/>
      <point x="472" y="51" type="line"/>
      <point x="632" y="1225" type="line"/>
      <point x="783" y="1257" type="line"/>
      <point x="787" y="1292" type="line"/>
      <point x="139" y="1292" type="line"/>
      <point x="134" y="1257" type="line"/>
      <point x="250" y="1225" type="line"/>
      <point x="91" y="67" type="line"/>
    </contour>
  </outline>
</glyph>
<glyph name="m.sc" format="1">
  <advance width="1853"/>
  <outline>
    <contour>
      <point x="1005" y="1383" type="move" name="top"/>
    </contour>
    <contour>
      <point x="696" y="0" type="move" name="bottom"/>
    </contour>
    <contour>
      <point x="-84" y="35" type="line"/>
      <point x="-89" y="0" type="line"/>
      <point x="337" y="0" type="line"/>
      <point x="342" y="35" type="line"/>
      <point x="164" y="90" type="line"/>
      <point x="373" y="948" type="line"/>
      <point x="435" y="1193" type="line"/>
      <point x="457" y="952" type="line"/>
      <point x="552" y="0" type="line"/>
      <point x="871" y="0" type="line"/>
      <point x="1212" y="949" type="line"/>
      <point x="1302" y="1189" type="line"/>
      <point x="1297" y="953" type="line"/>
      <point x="1247" y="63" type="line"/>
      <point x="1091" y="35" type="line"/>
      <point x="1087" y="0" type="line"/>
      <point x="1775" y="0" type="line"/>
      <point x="1778" y="35" type="line"/>
      <point x="1627" y="65" type="line"/>
      <point x="1671" y="1226" type="line"/>
      <point x="1828" y="1258" type="line"/>
      <point x="1833" y="1293" type="line"/>
      <point x="1253" y="1293" type="line"/>
      <point x="947" y="419" type="line"/>
      <point x="868" y="185" type="line"/>
      <point x="845" y="419" type="line"/>
      <point x="765" y="1293" type="line"/>
      <point x="212" y="1293" type="line"/>
      <point x="207" y="1258" type="line"/>
      <point x="375" y="1227" type="line"/>
      <point x="67" y="90" type="line"/>
    </contour>
  </outline>
</glyph>
<glyph name="n.sc" format="1">
  <advance width="1366"/>
  <outline>
    <contour>
      <point x="843" y="1383" type="move" name="top"/>
    </contour>
    <contour>
      <point x="633" y="0" type="move" name="bottom"/>
    </contour>
    <contour>
      <point x="-23" y="35" type="line"/>
      <point x="-28" y="0" type="line"/>
      <point x="386" y="0" type="line"/>
      <point x="390" y="35" type="line"/>
      <point x="218" y="70" type="line"/>
      <point x="339" y="1260" type="line"/>
      <point x="285" y="1232" type="line"/>
      <point x="396" y="994" type="line"/>
      <point x="858" y="0" type="line"/>
      <point x="1147" y="0" type="line"/>
      <point x="1319" y="1222" type="line"/>
      <point x="1454" y="1257" type="line"/>
      <point x="1458" y="1292" type="line"/>
      <point x="1045" y="1292" type="line"/>
      <point x="1040" y="1257" type="line"/>
      <point x="1213" y="1222" type="line"/>
      <point x="1091" y="29" type="line"/>
      <point x="1140" y="238" type="line"/>
      <point x="1030" y="498" type="line"/>
      <point x="658" y="1292" type="line"/>
      <point x="134" y="1292" type="line"/>
      <point x="130" y="1257" type="line"/>
      <point x="273" y="1220" type="line"/>
      <point x="112" y="70" type="line"/>
    </contour>
  </outline>
</glyph>
<glyph name="o.sc" format="1">
  <advance width="1398"/>
  <outline>
    <contour>
      <point x="145" y="1165" type="move" name="topleft"/>
    </contour>
    <contour>
      <point x="712" y="651" type="move" name="center"/>
    </contour>
    <contour>
      <point x="637" y="0" type="move" name="bottom"/>
    </contour>
    <contour>
      <point x="806" y="1396" type="move" name="top"/>
    </contour>
    <contour>
      <point x="1165" y="1456" type="move" name="topright"/>
    </contour>
    <contour>
      <point x="904" y="25" type="move" name="ogonek"/>
    </contour>
    <contour>
      <point x="623" y="-16" type="curve"/>
      <point x="1148" y="-16"/>
      <point x="1389" y="381"/>
      <point x="1384" y="773" type="curve"/>
      <point x="1382" y="1010"/>
      <point x="1261" y="1310"/>
      <point x="802" y="1310" type="curve"/>
      <point x="277" y="1310"/>
      <point x="36" y="923"/>
      <point x="41" y="521" type="curve"/>
      <point x="44" y="284"/>
      <point x="164" y="-16"/>
    </contour>
    <contour>
      <point x="646" y="43" type="curve"/>
      <point x="464" y="43"/>
      <point x="430" y="212"/>
      <point x="428" y="439" type="curve"/>
      <point x="423" y="856"/>
      <point x="553" y="1252"/>
      <point x="779" y="1252" type="curve"/>
      <point x="961" y="1252"/>
      <point x="995" y="1082"/>
      <point x="998" y="855" type="curve"/>
      <point x="1003" y="438"/>
      <point x="872" y="43"/>
    </contour>
  </outline>
</glyph>
<glyph name="oe.sc" format="1">
  <advance width="2120"/>
  <outline>
    <contour>
      <point x="623" y="-16" type="curve"/>
      <point x="801" y="-16"/>
      <point x="953" y="52"/>
      <point x="1071" y="160" type="curve"/>
      <point x="1048" y="0" type="line"/>
      <point x="1998" y="0" type="line"/>
      <point x="2081" y="374" type="line"/>
      <point x="1912" y="390" type="line"/>
      <point x="1760" y="78" type="line"/>
      <point x="1390" y="50" type="line"/>
      <point x="1468" y="625" type="line"/>
      <point x="1851" y="610" type="line"/>
      <point x="1873" y="711" type="line"/>
      <point x="1477" y="686" type="line"/>
      <point x="1553" y="1242" type="line"/>
      <point x="1854" y="1214" type="line"/>
      <point x="1924" y="978" type="line"/>
      <point x="2068" y="978" type="line"/>
      <point x="2091" y="1292" type="line"/>
      <point x="1224" y="1292" type="line"/>
      <point x="1201" y="1128" type="line"/>
      <point x="1117" y="1232"/>
      <point x="981" y="1310"/>
      <point x="781" y="1310" type="curve"/>
      <point x="277" y="1310"/>
      <point x="36" y="923"/>
      <point x="41" y="521" type="curve"/>
      <point x="44" y="284"/>
      <point x="164" y="-16"/>
    </contour>
    <contour>
      <point x="646" y="43" type="curve"/>
      <point x="495" y="43"/>
      <point x="430" y="212"/>
      <point x="428" y="439" type="curve"/>
      <point x="423" y="856"/>
      <point x="553" y="1252"/>
      <point x="779" y="1252" type="curve"/>
      <point x="931" y="1252"/>
      <point x="995" y="1082"/>
      <point x="998" y="855" type="curve"/>
      <point x="1003" y="438"/>
      <point x="872" y="43"/>
    </contour>
  </outline>
</glyph>
<glyph name="p.sc" format="1">
  <advance width="1283"/>
  <outline>
    <contour>
      <point x="690" y="1383" type="move" name="top"/>
    </contour>
    <contour>
      <point x="-37" y="35" type="line"/>
      <point x="-41" y="0" type="line"/>
      <point x="702" y="0" type="line"/>
      <point x="706" y="39" type="line"/>
      <point x="463" y="67" type="line"/>
      <point x="625" y="1269" type="line"/>
      <point x="613" y="1239" type="line"/>
      <point x="643" y="1247"/>
      <point x="665" y="1252"/>
      <point x="717" y="1252" type="curve"/>
      <point x="853" y="1252"/>
      <point x="894" y="1124"/>
      <point x="896" y="953" type="curve"/>
      <point x="898" y="829"/>
      <point x="817" y="535"/>
      <point x="592" y="535" type="curve"/>
      <point x="569" y="535"/>
      <point x="534" y="536"/>
      <point x="483" y="546" type="curve"/>
      <point x="477" y="490" type="line"/>
      <point x="523" y="482"/>
      <point x="594" y="480"/>
      <point x="650" y="480" type="curve"/>
      <point x="1179" y="480"/>
      <point x="1280" y="785"/>
      <point x="1278" y="919" type="curve"/>
      <point x="1275" y="1191"/>
      <point x="1108" y="1305"/>
      <point x="785" y="1303" type="curve"/>
      <point x="626" y="1302"/>
      <point x="561" y="1292"/>
      <point x="433" y="1292" type="curve"/>
      <point x="137" y="1292" type="line"/>
      <point x="132" y="1257" type="line"/>
      <point x="250" y="1225" type="line"/>
      <point x="89" y="66" type="line"/>
    </contour>
  </outline>
</glyph>
<glyph name="q.sc" format="1">
  <advance width="1398"/>
  <outline>
    <contour>
      <point x="974" y="-375" type="curve"/>
      <point x="1210" y="-375"/>
      <point x="1347" y="-275"/>
      <point x="1398" y="-238" type="curve"/>
      <point x="1394" y="-81" type="line"/>
      <point x="1316" y="-105"/>
      <point x="1217" y="-137"/>
      <point x="1062" y="-137" type="curve"/>
      <point x="896" y="-137"/>
      <point x="770" y="-128"/>
      <point x="768" y="7" type="curve"/>
      <point x="722" y="11" type="line"/>
      <point x="682" y="-54"/>
      <point x="663" y="-114"/>
      <point x="663" y="-168" type="curve"/>
      <point x="665" y="-292"/>
      <point x="784" y="-375"/>
    </contour>
    <contour>
      <point x="623" y="-16" type="curve"/>
      <point x="1148" y="-16"/>
      <point x="1389" y="381"/>
      <point x="1384" y="773" type="curve"/>
      <point x="1382" y="1010"/>
      <point x="1261" y="1310"/>
      <point x="802" y="1310" type="curve"/>
      <point x="277" y="1310"/>
      <point x="36" y="923"/>
      <point x="41" y="521" type="curve"/>
      <point x="44" y="284"/>
      <point x="164" y="-16"/>
    </contour>
    <contour>
      <point x="646" y="43" type="curve"/>
      <point x="464" y="43"/>
      <point x="430" y="212"/>
      <point x="428" y="439" type="curve"/>
      <point x="423" y="856"/>
      <point x="553" y="1252"/>
      <point x="779" y="1252" type="curve"/>
      <point x="961" y="1252"/>
      <point x="995" y="1082"/>
      <point x="998" y="855" type="curve"/>
      <point x="1003" y="438"/>
      <point x="872" y="43"/>
    </contour>
  </outline>
</glyph>
<glyph name="r.sc" format="1">
  <advance width="1368"/>
  <outline>
    <contour>
      <point x="728" y="1383" type="move" name="top"/>
    </contour>
    <contour>
      <point x="679" y="0" type="move" name="bottom"/>
    </contour>
    <contour>
      <point x="-37" y="35" type="line"/>
      <point x="-41" y="0" type="line"/>
      <point x="592" y="0" type="line"/>
      <point x="597" y="35" type="line"/>
      <point x="463" y="67" type="line"/>
      <point x="629" y="1279" type="line"/>
      <point x="600" y="1234" type="line"/>
      <point x="624" y="1243"/>
      <point x="659" y="1250"/>
      <point x="711" y="1250" type="curve"/>
      <point x="860" y="1250"/>
      <point x="921" y="1138"/>
      <point x="923" y="999" type="curve"/>
      <point x="925" y="826"/>
      <point x="836" y="676"/>
      <point x="632" y="676" type="curve"/>
      <point x="589" y="676"/>
      <point x="555" y="680"/>
      <point x="527" y="687" type="curve"/>
      <point x="519" y="617" type="line"/>
      <point x="564" y="617"/>
      <point x="604" y="617"/>
      <point x="681" y="617" type="curve"/>
      <point x="748" y="569"/>
      <point x="788" y="296"/>
      <point x="825" y="152" type="curve"/>
      <point x="853" y="53"/>
      <point x="885" y="0"/>
      <point x="931" y="0" type="curve"/>
      <point x="1341" y="0" type="line"/>
      <point x="1345" y="32" type="line"/>
      <point x="1258" y="52"/>
      <point x="1230" y="133"/>
      <point x="1190" y="229" type="curve"/>
      <point x="1138" y="375"/>
      <point x="1106" y="596"/>
      <point x="842" y="662" type="curve"/>
      <point x="757" y="634" type="line"/>
      <point x="1152" y="631"/>
      <point x="1284" y="821"/>
      <point x="1282" y="998" type="curve"/>
      <point x="1279" y="1200"/>
      <point x="1155" y="1302"/>
      <point x="762" y="1302" type="curve"/>
      <point x="643" y="1302"/>
      <point x="550" y="1292"/>
      <point x="412" y="1292" type="curve"/>
      <point x="136" y="1292" type="line"/>
      <point x="131" y="1257" type="line"/>
      <point x="250" y="1225" type="line"/>
      <point x="90" y="67" type="line"/>
    </contour>
  </outline>
</glyph>
<glyph name="s.sc" format="1">
  <advance width="1088"/>
  <outline>
    <contour>
      <point x="698" y="1383" type="move" name="top"/>
    </contour>
    <contour>
      <point x="458" y="0" type="move" name="bottom"/>
    </contour>
    <contour>
      <point x="472" y="-21" type="curve"/>
      <point x="831" y="-21"/>
      <point x="1034" y="149"/>
      <point x="1031" y="362" type="curve"/>
      <point x="1029" y="529"/>
      <point x="909" y="633"/>
      <point x="750" y="740" type="curve"/>
      <point x="564" y="866"/>
      <point x="441" y="930"/>
      <point x="437" y="1047" type="curve"/>
      <point x="432" y="1180"/>
      <point x="500" y="1250"/>
      <point x="664" y="1250" type="curve"/>
      <point x="725" y="1250"/>
      <point x="765" y="1237"/>
      <point x="788" y="1219" type="curve"/>
      <point x="818" y="984" type="line"/>
      <point x="1023" y="984" type="line"/>
      <point x="1067" y="1245" type="line"/>
      <point x="986" y="1275"/>
      <point x="862" y="1306"/>
      <point x="683" y="1306" type="curve"/>
      <point x="377" y="1306"/>
      <point x="113" y="1178"/>
      <point x="120" y="887" type="curve"/>
      <point x="125" y="719"/>
      <point x="272" y="609"/>
      <point x="427" y="509" type="curve"/>
      <point x="617" y="383"/>
      <point x="696" y="321"/>
      <point x="697" y="224" type="curve"/>
      <point x="698" y="120"/>
      <point x="614" y="30"/>
      <point x="479" y="30" type="curve"/>
      <point x="388" y="30"/>
      <point x="331" y="67"/>
      <point x="302" y="100" type="curve"/>
      <point x="280" y="339" type="line"/>
      <point x="70" y="339" type="line"/>
      <point x="17" y="65" type="line"/>
      <point x="94" y="34"/>
      <point x="304" y="-21"/>
    </contour>
  </outline>
</glyph>
<glyph name="schwa.sc" format="1">
  <advance width="1330"/>
  <outline>
    <contour>
      <point x="592" y="-19" type="curve"/>
      <point x="1049" y="-19"/>
      <point x="1328" y="322"/>
      <point x="1318" y="788" type="curve"/>
      <point x="1313" y="1025"/>
      <point x="1178" y="1309"/>
      <point x="739" y="1309" type="curve"/>
      <point x="463" y="1309"/>
      <point x="351" y="1228"/>
      <point x="247" y="1228" type="curve"/>
      <point x="209" y="943" type="line"/>
      <point x="388" y="943" type="line"/>
      <point x="482" y="1128" type="line"/>
      <point x="511" y="1189"/>
      <point x="613" y="1255"/>
      <point x="716" y="1255" type="curve"/>
      <point x="936" y="1255"/>
      <point x="958" y="961"/>
      <point x="963" y="753" type="curve"/>
      <point x="964" y="715"/>
      <point x="962" y="688"/>
      <point x="961" y="668" type="curve"/>
      <point x="119" y="668" type="line"/>
      <point x="100" y="623"/>
      <point x="77" y="498"/>
      <point x="79" y="407" type="curve"/>
      <point x="84" y="139"/>
      <point x="321" y="-19"/>
    </contour>
    <contour>
      <point x="607" y="36" type="curve"/>
      <point x="429" y="36"/>
      <point x="420" y="203"/>
      <point x="417" y="376" type="curve"/>
      <point x="416" y="435"/>
      <point x="430" y="541"/>
      <point x="445" y="604" type="curve"/>
      <point x="954" y="604" type="line"/>
      <point x="917" y="263"/>
      <point x="757" y="36"/>
    </contour>
  </outline>
</glyph>
<glyph name="t.sc" format="1">
  <advance width="1301"/>
  <outline>
    <contour>
      <point x="764" y="1383" type="move" name="top"/>
    </contour>
    <contour>
      <point x="590" y="0" type="move" name="bottom"/>
    </contour>
    <contour>
      <point x="196" y="35" type="line"/>
      <point x="192" y="0" type="line"/>
      <point x="1002" y="0" type="line"/>
      <point x="1007" y="35" type="line"/>
      <point x="785" y="73" type="line"/>
      <point x="943" y="1242" type="line"/>
      <point x="1080" y="1236" type="line"/>
      <point x="1204" y="799" type="line"/>
      <point x="1317" y="799" type="line"/>
      <point x="1358" y="1292" type="line"/>
      <point x="152" y="1292" type="line"/>
      <point x="58" y="799" type="line"/>
      <point x="190" y="799" type="line"/>
      <point x="421" y="1236" type="line"/>
      <point x="574" y="1242" type="line"/>
      <point x="412" y="73" type="line"/>
    </contour>
  </outline>
</glyph>
<glyph name="u.sc" format="1">
  <advance width="1345"/>
  <outline>
    <contour>
      <point x="832" y="1383" type="move" name="top"/>
    </contour>
    <contour>
      <point x="893" y="16" type="move" name="ogonek"/>
    </contour>
    <contour>
      <point x="1465" y="1165" type="move" name="topright"/>
    </contour>
    <contour>
      <point x="676" y="0" type="move" name="bottom"/>
    </contour>
    <contour>
      <point x="653" y="-20" type="curve"/>
      <point x="1084" y="-20"/>
      <point x="1165" y="202"/>
      <point x="1208" y="475" type="curve"/>
      <point x="1324" y="1212" type="line"/>
      <point x="1437" y="1257" type="line"/>
      <point x="1442" y="1292" type="line"/>
      <point x="1073" y="1292" type="line"/>
      <point x="1068" y="1257" type="line"/>
      <point x="1235" y="1218" type="line"/>
      <point x="1134" y="476" type="line" smooth="yes"/>
      <point x="1101" y="240"/>
      <point x="1018" y="83"/>
      <point x="755" y="83" type="curve"/>
      <point x="512" y="83"/>
      <point x="473" y="223"/>
      <point x="509" y="476" type="curve"/>
      <point x="617" y="1222" type="line"/>
      <point x="779" y="1257" type="line"/>
      <point x="784" y="1292" type="line"/>
      <point x="137" y="1292" type="line"/>
      <point x="132" y="1256" type="line"/>
      <point x="241" y="1226" type="line"/>
      <point x="132" y="478" type="line" smooth="yes"/>
      <point x="79" y="124"/>
      <point x="262" y="-20"/>
    </contour>
  </outline>
</glyph>
<glyph name="v.sc" format="1">
  <advance width="1189"/>
  <outline>
    <contour>
      <point x="788" y="1383" type="move" name="top"/>
    </contour>
    <contour>
      <point x="120" y="1229" type="line"/>
      <point x="369" y="1" type="line"/>
      <point x="685" y="0" type="line"/>
      <point x="1223" y="1203" type="line"/>
      <point x="1378" y="1257" type="line"/>
      <point x="1383" y="1292" type="line"/>
      <point x="939" y="1292" type="line"/>
      <point x="934" y="1257" type="line"/>
      <point x="1121" y="1206" type="line"/>
      <point x="733" y="266" type="line"/>
      <point x="648" y="72" type="line"/>
      <point x="713" y="106" type="line"/>
      <point x="675" y="324" type="line"/>
      <point x="511" y="1229" type="line"/>
      <point x="662" y="1257" type="line"/>
      <point x="666" y="1292" type="line"/>
      <point x="10" y="1292" type="line"/>
      <point x="5" y="1257" type="line"/>
    </contour>
  </outline>
</glyph>
<glyph name="w.sc" format="1">
  <advance width="2001"/>
  <outline>
    <contour>
      <point x="1190" y="1383" type="move" name="top"/>
    </contour>
    <contour>
      <point x="1018" y="0" type="move" name="bottom"/>
    </contour>
    <contour>
      <point x="177" y="1229" type="line"/>
      <point x="403" y="1" type="line"/>
      <point x="708" y="0" type="line"/>
      <point x="1229" y="1209" type="line"/>
      <point x="1127" y="1212" type="line"/>
      <point x="752" y="267" type="line"/>
      <point x="672" y="72" type="line"/>
      <point x="737" y="106" type="line"/>
      <point x="698" y="321" type="line"/>
      <point x="558" y="1229" type="line"/>
      <point x="708" y="1257" type="line"/>
      <point x="712" y="1292" type="line"/>
      <point x="67" y="1292" type="line"/>
      <point x="62" y="1257" type="line"/>
    </contour>
    <contour>
      <point x="955" y="1229" type="line"/>
      <point x="1179" y="1" type="line"/>
      <point x="1485" y="0" type="line"/>
      <point x="2010" y="1203" type="line"/>
      <point x="2155" y="1257" type="line"/>
      <point x="2160" y="1292" type="line"/>
      <point x="1715" y="1292" type="line"/>
      <point x="1711" y="1257" type="line"/>
      <point x="1908" y="1206" type="line"/>
      <point x="1529" y="266" type="line"/>
      <point x="1449" y="72" type="line"/>
      <point x="1513" y="106" type="line"/>
      <point x="1474" y="321" type="line"/>
      <point x="1336" y="1229" type="line"/>
      <point x="1485" y="1257" type="line"/>
      <point x="1489" y="1292" type="line"/>
      <point x="843" y="1292" type="line"/>
      <point x="838" y="1257" type="line"/>
    </contour>
  </outline>
</glyph>
<glyph name="x.sc" format="1">
  <advance width="1336"/>
  <outline>
    <contour>
      <point x="-100" y="35" type="line"/>
      <point x="-104" y="0" type="line"/>
      <point x="386" y="0" type="line"/>
      <point x="389" y="35" type="line"/>
      <point x="194" y="71" type="line"/>
      <point x="595" y="560" type="line"/>
      <point x="801" y="692" type="line"/>
      <point x="1285" y="1215" type="line"/>
      <point x="1446" y="1256" type="line"/>
      <point x="1451" y="1291" type="line"/>
      <point x="988" y="1291" type="line"/>
      <point x="983" y="1256" type="line"/>
      <point x="1168" y="1215" type="line"/>
      <point x="770" y="745" type="line"/>
      <point x="561" y="612" type="line"/>
      <point x="71" y="72" type="line"/>
    </contour>
    <contour>
      <point x="592" y="35" type="line"/>
      <point x="587" y="0" type="line"/>
      <point x="1292" y="0" type="line"/>
      <point x="1297" y="35" type="line"/>
      <point x="1157" y="73" type="line"/>
      <point x="828" y="748" type="line"/>
      <point x="818" y="758" type="line"/>
      <point x="627" y="1215" type="line"/>
      <point x="790" y="1257" type="line"/>
      <point x="795" y="1292" type="line"/>
      <point x="85" y="1292" type="line"/>
      <point x="83" y="1257" type="line"/>
      <point x="215" y="1215" type="line"/>
      <point x="537" y="557" type="line"/>
      <point x="547" y="543" type="line"/>
      <point x="749" y="74" type="line"/>
    </contour>
  </outline>
</glyph>
<glyph name="y.sc" format="1">
  <advance width="1187"/>
  <outline>
    <contour>
      <point x="69" y="1292" type="move" name="topleft"/>
    </contour>
    <contour>
      <point x="781" y="1383" type="move" name="top"/>
    </contour>
    <contour>
      <point x="529" y="0" type="move" name="bottom"/>
    </contour>
    <contour>
      <point x="144" y="37" type="line"/>
      <point x="140" y="0" type="line"/>
      <point x="974" y="0" type="line"/>
      <point x="979" y="37" type="line"/>
      <point x="741" y="74" type="line"/>
      <point x="815" y="591" type="line"/>
      <point x="735" y="441" type="line"/>
      <point x="1205" y="1227" type="line"/>
      <point x="1340" y="1257" type="line"/>
      <point x="1344" y="1292" type="line"/>
      <point x="958" y="1292" type="line"/>
      <point x="953" y="1257" type="line"/>
      <point x="1088" y="1227" type="line"/>
      <point x="804" y="663" type="line"/>
      <point x="691" y="473" type="line"/>
      <point x="773" y="545" type="line"/>
      <point x="702" y="714" type="line"/>
      <point x="517" y="1223" type="line"/>
      <point x="659" y="1257" type="line"/>
      <point x="664" y="1292" type="line"/>
      <point x="31" y="1292" type="line"/>
      <point x="26" y="1257" type="line"/>
      <point x="135" y="1227" type="line"/>
      <point x="469" y="420" type="line"/>
      <point x="446" y="642" type="line"/>
      <point x="365" y="74" type="line"/>
    </contour>
  </outline>
</glyph>
<glyph name="z.sc" format="1">
  <advance width="1229"/>
  <outline>
    <contour>
      <point x="739" y="1383" type="move" name="top"/>
    </contour>
    <contour>
      <point x="535" y="0" type="move" name="bottom"/>
    </contour>
    <contour>
      <point x="-27" y="43" type="line"/>
      <point x="-4" y="0" type="line"/>
      <point x="1086" y="0" type="line"/>
      <point x="1158" y="406" type="line"/>
      <point x="996" y="422" type="line"/>
      <point x="835" y="79" type="line"/>
      <point x="366" y="50" type="line"/>
      <point x="479" y="159" type="line"/>
      <point x="1289" y="1248" type="line"/>
      <point x="1273" y="1292" type="line"/>
      <point x="242" y="1292" type="line"/>
      <point x="181" y="893" type="line"/>
      <point x="354" y="895" type="line"/>
      <point x="502" y="1222" type="line"/>
      <point x="905" y="1242" type="line"/>
      <point x="792" y="1135" type="line"/>
    </contour>
  </outline>
</glyph>
